<svg width="12" height="12" viewBox="0 0 12 12" fill="none" xmlns="http://www.w3.org/2000/svg">
<path d="M1.2915 3.725C1.2915 2.81491 1.2915 2.35987 1.46862 2.01227C1.62441 1.7065 1.87301 1.45791 2.17877 1.30211C2.52638 1.125 2.98142 1.125 3.8915 1.125H8.4415C9.35159 1.125 9.80663 1.125 10.1542 1.30211C10.46 1.45791 10.7086 1.7065 10.8644 2.01227C11.0415 2.35987 11.0415 2.81491 11.0415 3.725V6.65C11.0415 7.56009 11.0415 8.01513 10.8644 8.36274C10.7086 8.6685 10.46 8.91709 10.1542 9.07289C9.80663 9.25 9.35159 9.25 8.4415 9.25H7.07853C6.74051 9.25 6.57149 9.25 6.40983 9.28318C6.2664 9.31261 6.12761 9.3613 5.99723 9.42791C5.85026 9.50299 5.71828 9.60858 5.45433 9.81974L4.16221 10.8534C3.93683 11.0337 3.82414 11.1239 3.7293 11.124C3.64682 11.1241 3.56879 11.0866 3.51734 11.0221C3.45817 10.948 3.45817 10.8037 3.45817 10.5151V9.25C2.95444 9.25 2.70257 9.25 2.49592 9.19463C1.93515 9.04437 1.49713 8.60636 1.34687 8.04558C1.2915 7.83894 1.2915 7.58707 1.2915 7.08333V3.725Z" stroke="#141522" stroke-width="1.25" stroke-linecap="round" stroke-linejoin="round"/>
</svg>
