<svg width="25" height="24" viewBox="0 0 25 24" fill="none" xmlns="http://www.w3.org/2000/svg">
<path d="M9.25 22H15.25C20.25 22 22.25 20 22.25 15V9C22.25 4 20.25 2 15.25 2H9.25C4.25 2 2.25 4 2.25 9V15C2.25 20 4.25 22 9.25 22Z" stroke="#8E92BC" stroke-width="1.5" stroke-linecap="round" stroke-linejoin="round"/>
<path d="M10.25 17H14.25C15.9 17 17.25 15.65 17.25 14V10C17.25 8.35 15.9 7 14.25 7H10.25C8.6 7 7.25 8.35 7.25 10V14C7.25 15.65 8.6 17 10.25 17Z" stroke="#8E92BC" stroke-width="1.5" stroke-linecap="round" stroke-linejoin="round"/>
<path d="M12.25 7V17" stroke="#8E92BC" stroke-width="1.5" stroke-linecap="round" stroke-linejoin="round"/>
<path d="M7.25 12H17.25" stroke="#8E92BC" stroke-width="1.5" stroke-linecap="round" stroke-linejoin="round"/>
</svg>
