<svg width="25" height="24" viewBox="0 0 25 24" fill="none" xmlns="http://www.w3.org/2000/svg">
<path d="M17.25 21H7.25C3.25 21 2.25 20 2.25 16V8C2.25 4 3.25 3 7.25 3H17.25C21.25 3 22.25 4 22.25 8V16C22.25 20 21.25 21 17.25 21Z" stroke="#8E92BC" stroke-width="1.5" stroke-linecap="round" stroke-linejoin="round"/>
<path d="M14.25 8H19.25" stroke="#8E92BC" stroke-width="1.5" stroke-linecap="round" stroke-linejoin="round"/>
<path d="M15.25 12H19.25" stroke="#8E92BC" stroke-width="1.5" stroke-linecap="round" stroke-linejoin="round"/>
<path d="M17.25 16H19.25" stroke="#8E92BC" stroke-width="1.5" stroke-linecap="round" stroke-linejoin="round"/>
<path d="M8.74945 11.29C9.74909 11.29 10.5595 10.4797 10.5595 9.48004C10.5595 8.48041 9.74909 7.67004 8.74945 7.67004C7.74982 7.67004 6.93945 8.48041 6.93945 9.48004C6.93945 10.4797 7.74982 11.29 8.74945 11.29Z" stroke="#8E92BC" stroke-width="1.5" stroke-linecap="round" stroke-linejoin="round"/>
<path d="M12.25 16.33C12.11 14.88 10.96 13.74 9.51 13.61C9.01 13.56 8.5 13.56 7.99 13.61C6.54 13.75 5.39 14.88 5.25 16.33" stroke="#8E92BC" stroke-width="1.5" stroke-linecap="round" stroke-linejoin="round"/>
</svg>
